<svg width="34" height="30" viewBox="0 0 34 30" fill="none" xmlns="http://www.w3.org/2000/svg">
<path d="M8.88877 29.3395C8.75082 29.3446 8.61316 29.3243 8.48367 29.2796C8.35417 29.235 8.2354 29.167 8.13416 29.0794C8.03291 28.9919 7.9512 28.8866 7.89368 28.7696C7.83616 28.6525 7.80398 28.526 7.79899 28.3974L6.82943 5.37662C6.82398 5.24788 6.8458 5.1194 6.89364 4.99853C6.94147 4.87767 7.0144 4.76678 7.10823 4.67222C7.20206 4.57766 7.31496 4.50128 7.44048 4.44744C7.56599 4.39361 7.70166 4.36339 7.83971 4.35849L31.2913 3.50675C31.4294 3.50166 31.5671 3.52201 31.6967 3.56662C31.8263 3.61123 31.9452 3.67924 32.0466 3.76675C32.148 3.85425 32.2299 3.95955 32.2877 4.0766C32.3454 4.19365 32.3778 4.32017 32.383 4.44891L33.3448 27.2888C33.3574 27.5975 33.238 27.8981 33.0129 28.1247C32.7878 28.3512 32.4755 28.4851 32.1445 28.4968L8.88877 29.3395Z" fill="#68E1FD"/>
<path d="M8.8482 29.5222C8.52613 29.5224 8.21655 29.406 7.98469 29.1976C7.75282 28.9891 7.61678 28.7048 7.60523 28.4047L6.63567 5.38391C6.62308 5.07606 6.742 4.77614 6.96632 4.54999C7.19064 4.32384 7.50203 4.18994 7.83211 4.17771L31.2915 3.32777C31.4549 3.32147 31.618 3.34532 31.7716 3.39793C31.9251 3.45055 32.066 3.5309 32.1861 3.63439C32.3063 3.73787 32.4033 3.86246 32.4718 4.001C32.5402 4.13954 32.5786 4.28932 32.5849 4.44174L33.5389 27.2889C33.5531 27.6454 33.4151 27.9925 33.1552 28.2542C32.8952 28.5159 32.5346 28.6708 32.1524 28.685L8.89668 29.5295L8.8482 29.5222ZM31.3419 3.68764H31.307L7.85538 4.53939C7.62818 4.54786 7.41386 4.63999 7.25937 4.79558C7.10489 4.95117 7.02286 5.15754 7.03125 5.36944L7.99111 28.392C7.99536 28.4969 8.02189 28.6 8.06915 28.6953C8.11642 28.7906 8.18348 28.8762 8.26647 28.9472C8.43416 29.0906 8.65572 29.1666 8.8831 29.1588L32.1389 28.3142C32.418 28.3039 32.6814 28.1907 32.8711 27.9995C33.0609 27.8083 33.1616 27.5547 33.1511 27.2943L32.197 4.4562C32.1885 4.2499 32.0947 4.05467 31.9353 3.91141C31.7759 3.76814 31.5633 3.68795 31.3419 3.68764Z" fill="#093F68"/>
<path d="M26.3116 27.345H6.36594C6.0872 27.345 5.81987 27.2417 5.62277 27.0579C5.42567 26.8741 5.31494 26.6248 5.31494 26.3648V3.32597C5.31469 3.19719 5.3417 3.06963 5.39443 2.95061C5.44715 2.83158 5.52456 2.72344 5.6222 2.63237C5.71985 2.54131 5.83581 2.46912 5.96344 2.41995C6.09107 2.37078 6.22785 2.34559 6.36594 2.34583H29.8292C29.9672 2.34583 30.1039 2.37118 30.2314 2.42044C30.3589 2.46969 30.4748 2.54189 30.5724 2.6329C30.67 2.72392 30.7474 2.83197 30.8002 2.95089C30.853 3.0698 30.8802 3.19726 30.8802 3.32597V22.8656L26.3116 27.345Z" fill="white"/>
<path d="M26.3117 27.5258H6.36599C6.0358 27.5254 5.71925 27.403 5.48558 27.1854C5.25192 26.9678 5.12017 26.6728 5.11914 26.3649V3.32602C5.12017 3.01809 5.25192 2.72307 5.48558 2.5055C5.71925 2.28793 6.0358 2.16552 6.36599 2.16504H29.8292C30.1592 2.16552 30.4756 2.28799 30.7089 2.50561C30.9423 2.72323 31.0736 3.01826 31.0741 3.32602V22.8656C31.0739 22.9122 31.0545 22.9569 31.0198 22.9904L26.4513 27.4698C26.4333 27.4874 26.4116 27.5015 26.3876 27.5111C26.3636 27.5207 26.3378 27.5258 26.3117 27.5258ZM6.36599 2.52672C6.1385 2.52672 5.92029 2.61087 5.75925 2.76072C5.59821 2.91057 5.50748 3.11387 5.50696 3.32602V26.3649C5.50799 26.5769 5.59888 26.7799 5.75981 26.9296C5.92075 27.0794 6.13865 27.1637 6.36599 27.1642H26.2283L30.6883 22.7933V3.32602C30.6877 3.11418 30.5973 2.91115 30.4367 2.76136C30.276 2.61156 30.0583 2.52719 29.8312 2.52672H6.36599Z" fill="#093F68"/>
<path d="M26.312 27.345V23.8873C26.3125 23.6395 26.4183 23.402 26.6062 23.2268C26.7941 23.0515 27.0488 22.9529 27.3145 22.9524H30.8883L26.312 27.345Z" fill="#FFBC0E"/>
<path d="M26.3116 27.5257C26.2871 27.5252 26.2629 27.5209 26.2398 27.5131C26.2038 27.4997 26.1728 27.4765 26.151 27.4465C26.1293 27.4165 26.1176 27.3811 26.1177 27.3449V23.8873C26.1182 23.5915 26.2444 23.308 26.4687 23.0988C26.6929 22.8897 26.997 22.772 27.3141 22.7715H30.8879C30.9262 22.7713 30.9637 22.7816 30.9956 22.8013C31.0276 22.8209 31.0527 22.8489 31.0676 22.8818C31.0825 22.9147 31.0867 22.9509 31.0795 22.986C31.0724 23.0211 31.0543 23.0534 31.0275 23.0789L26.4512 27.4697C26.4332 27.4873 26.4115 27.5014 26.3875 27.511C26.3635 27.5206 26.3377 27.5256 26.3116 27.5257ZM27.3141 23.1295C27.0997 23.1295 26.894 23.209 26.7423 23.3504C26.5907 23.4918 26.5055 23.6836 26.5055 23.8836V26.8946L30.4283 23.1295H27.3141Z" fill="#093F68"/>
<path d="M26.3118 8.1887H15.065C15.0136 8.1887 14.9643 8.16965 14.9279 8.13574C14.8915 8.10182 14.8711 8.05583 14.8711 8.00787C14.8711 7.9599 14.8915 7.91391 14.9279 7.87999C14.9643 7.84608 15.0136 7.82703 15.065 7.82703H26.3118C26.3633 7.82703 26.4126 7.84608 26.449 7.87999C26.4853 7.91391 26.5058 7.9599 26.5058 8.00787C26.5058 8.05583 26.4853 8.10182 26.449 8.13574C26.4126 8.16965 26.3633 8.1887 26.3118 8.1887Z" fill="#093F68"/>
<path d="M26.3118 11.055H10.0523C10.0009 11.055 9.95156 11.036 9.91519 11.0021C9.87883 10.9682 9.8584 10.9222 9.8584 10.8742C9.8584 10.8262 9.87883 10.7802 9.91519 10.7463C9.95156 10.7124 10.0009 10.6934 10.0523 10.6934H26.3118C26.3632 10.6934 26.4125 10.7124 26.4489 10.7463C26.4852 10.7802 26.5057 10.8262 26.5057 10.8742C26.5057 10.9222 26.4852 10.9682 26.4489 11.0021C26.4125 11.036 26.3632 11.055 26.3118 11.055Z" fill="#093F68"/>
<path d="M26.3118 13.9231H10.0523C10.0009 13.9231 9.95156 13.904 9.91519 13.8701C9.87883 13.8362 9.8584 13.7902 9.8584 13.7422C9.8584 13.6943 9.87883 13.6483 9.91519 13.6144C9.95156 13.5805 10.0009 13.5614 10.0523 13.5614H26.3118C26.3632 13.5614 26.4125 13.5805 26.4489 13.6144C26.4852 13.6483 26.5057 13.6943 26.5057 13.7422C26.5057 13.7902 26.4852 13.8362 26.4489 13.8701C26.4125 13.904 26.3632 13.9231 26.3118 13.9231Z" fill="#093F68"/>
<path d="M26.3118 16.7894H10.0523C10.0009 16.7894 9.95156 16.7704 9.91519 16.7364C9.87883 16.7025 9.8584 16.6565 9.8584 16.6086C9.8584 16.5606 9.87883 16.5146 9.91519 16.4807C9.95156 16.4468 10.0009 16.4277 10.0523 16.4277H26.3118C26.3632 16.4277 26.4125 16.4468 26.4489 16.4807C26.4852 16.5146 26.5057 16.5606 26.5057 16.6086C26.5057 16.6565 26.4852 16.7025 26.4489 16.7364C26.4125 16.7704 26.3632 16.7894 26.3118 16.7894Z" fill="#093F68"/>
<path d="M26.3118 19.6575H10.0523C10.0009 19.6575 9.95156 19.6384 9.91519 19.6045C9.87883 19.5706 9.8584 19.5246 9.8584 19.4766C9.8584 19.4287 9.87883 19.3827 9.91519 19.3487C9.95156 19.3148 10.0009 19.2958 10.0523 19.2958H26.3118C26.3632 19.2958 26.4125 19.3148 26.4489 19.3487C26.4852 19.3827 26.5057 19.4287 26.5057 19.4766C26.5057 19.5246 26.4852 19.5706 26.4489 19.6045C26.4125 19.6384 26.3632 19.6575 26.3118 19.6575Z" fill="#093F68"/>
<path d="M20.0833 22.5256H10.0523C10.0009 22.5256 9.95156 22.5066 9.91519 22.4727C9.87883 22.4387 9.8584 22.3927 9.8584 22.3448C9.8584 22.2968 9.87883 22.2508 9.91519 22.2169C9.95156 22.183 10.0009 22.1639 10.0523 22.1639H20.0833C20.1348 22.1639 20.1841 22.183 20.2204 22.2169C20.2568 22.2508 20.2772 22.2968 20.2772 22.3448C20.2772 22.3927 20.2568 22.4387 20.2204 22.4727C20.1841 22.5066 20.1348 22.5256 20.0833 22.5256Z" fill="#093F68"/>
<path d="M11.9197 5.66239C11.6686 5.67403 11.4216 5.59923 11.2257 5.45221C11.0298 5.30519 10.8986 5.09618 10.8571 4.86489L10.2443 1.63873C10.2136 1.50056 10.2171 1.35767 10.2548 1.22099C10.2924 1.08432 10.3631 0.957506 10.4615 0.850271C10.6469 0.660399 10.8946 0.533122 11.1657 0.488303C11.4369 0.443485 11.7163 0.483647 11.9604 0.602521C12.0922 0.671823 12.2053 0.768297 12.291 0.884575C12.3767 1.00085 12.4327 1.13386 12.4549 1.27343L12.6255 2.17763C12.63 2.20102 12.6295 2.225 12.624 2.24821C12.6185 2.27141 12.6082 2.29339 12.5936 2.31287C12.579 2.33235 12.5605 2.34896 12.539 2.36175C12.5175 2.37453 12.4936 2.38325 12.4685 2.3874C12.4434 2.39157 12.4177 2.39108 12.3928 2.38597C12.3679 2.38086 12.3443 2.37123 12.3235 2.35763C12.3026 2.34403 12.2848 2.32672 12.271 2.30669C12.2573 2.28667 12.248 2.26432 12.2435 2.24092L12.0729 1.33673C12.0605 1.2498 12.0268 1.16671 11.9743 1.09394C11.9218 1.02117 11.852 0.960679 11.7704 0.91718C11.6044 0.839801 11.4161 0.814374 11.2335 0.844669C11.0508 0.874964 10.8834 0.959367 10.7562 1.08536C10.6955 1.15217 10.6522 1.23117 10.6297 1.31619C10.6071 1.40121 10.606 1.48993 10.6263 1.57543L11.2371 4.80159C11.3186 5.22476 11.718 5.34411 12.0768 5.29528C12.4355 5.24646 12.7652 4.98605 12.6857 4.57193L12.5596 3.91187C12.5506 3.86391 12.5624 3.81458 12.5924 3.77473C12.6224 3.73488 12.6682 3.70778 12.7196 3.69938C12.771 3.69099 12.8239 3.70199 12.8666 3.72997C12.9094 3.75795 12.9384 3.80061 12.9474 3.84857L13.0715 4.50864C13.1937 5.14519 12.6992 5.57016 12.1505 5.66058C12.0737 5.66691 11.9966 5.66752 11.9197 5.66239Z" fill="#093F68"/>
<path d="M8.10547 21.599L5.94676 22.4091L1.09668 11.1688C1.01105 10.9704 1.01346 10.7484 1.10338 10.5516C1.19329 10.3548 1.36335 10.1994 1.57614 10.1195L2.12841 9.91227C2.3412 9.83241 2.57929 9.83466 2.7903 9.91852C3.00131 10.0024 3.16796 10.161 3.25359 10.3594L8.10367 21.5997L8.10547 21.599Z" fill="#F56132"/>
<path d="M5.94908 22.5961C5.92304 22.5966 5.89721 22.5916 5.87346 22.5816C5.82608 22.5633 5.78842 22.5282 5.76875 22.484L0.92097 11.2485C0.867733 11.1287 0.840332 11.0002 0.840332 10.8705C0.840332 10.7408 0.867733 10.6124 0.92097 10.4926C0.97527 10.3728 1.05471 10.2644 1.15462 10.1737C1.25452 10.083 1.37287 10.0119 1.5027 9.96453L2.05341 9.75657C2.31349 9.65916 2.6043 9.66152 2.86252 9.76313C3.12075 9.86474 3.32547 10.0574 3.43212 10.2991L8.2799 21.5328C8.29908 21.5772 8.29863 21.6268 8.27864 21.6709C8.25865 21.7149 8.22075 21.7498 8.17325 21.7679L6.02277 22.5871C5.99906 22.5945 5.97404 22.5976 5.94908 22.5961ZM2.45868 10.0477C2.37296 10.0477 2.28803 10.063 2.20854 10.0929L1.66171 10.2991C1.49685 10.3617 1.36532 10.4827 1.2959 10.6355C1.22648 10.7884 1.22484 10.9607 1.29134 11.1147L6.06737 22.1802L7.86299 21.5057L3.07726 10.4401C3.02712 10.3244 2.94111 10.2253 2.83023 10.1554C2.71936 10.0855 2.58864 10.048 2.45481 10.0477H2.45868Z" fill="#093F68"/>
<path d="M5.95117 22.4171L8.10747 21.6069L8.33822 24.2472L8.42742 25.2544L7.74291 24.4696L5.95117 22.4171Z" fill="white"/>
<path d="M8.42759 25.4353C8.39895 25.4351 8.37071 25.429 8.34489 25.4174C8.31908 25.4059 8.29633 25.3891 8.27828 25.3684L5.8001 22.531C5.78087 22.5091 5.76744 22.4832 5.7609 22.4555C5.75435 22.4278 5.75488 22.3991 5.76242 22.3717C5.76997 22.3442 5.78434 22.3188 5.80435 22.2975C5.82437 22.2761 5.84948 22.2595 5.87766 22.2489L8.03589 21.4387C8.06389 21.4285 8.09406 21.4245 8.12401 21.427C8.15397 21.4295 8.18288 21.4385 8.20847 21.4532C8.23466 21.4679 8.25675 21.4882 8.27292 21.5124C8.2891 21.5366 8.29891 21.564 8.30155 21.5925L8.62151 25.24C8.62439 25.2783 8.6141 25.3165 8.59214 25.349C8.57017 25.3815 8.53767 25.4067 8.49934 25.4208C8.47672 25.4301 8.45232 25.435 8.42759 25.4353ZM6.26743 22.493L8.18327 24.6884L7.93506 21.8637L6.26743 22.493Z" fill="#093F68"/>
<path d="M7.74268 24.4696L8.33798 24.2472L8.42718 25.2545L7.74268 24.4696Z" fill="#093F68"/>
<path d="M8.42756 25.4352C8.39892 25.435 8.37068 25.4289 8.34486 25.4174C8.31904 25.4058 8.29629 25.389 8.27825 25.3683L7.59181 24.5853C7.57245 24.5631 7.55902 24.5369 7.55261 24.5089C7.54621 24.4809 7.54701 24.4519 7.55496 24.4243C7.56286 24.397 7.5775 24.3719 7.59771 24.3508C7.61791 24.3298 7.64312 24.3135 7.67131 24.3031L8.26662 24.0789C8.29471 24.0683 8.32508 24.0641 8.35527 24.0664C8.38546 24.0688 8.41464 24.0777 8.44047 24.0925C8.46629 24.1072 8.48805 24.1274 8.50399 24.1515C8.51994 24.1755 8.52962 24.2027 8.53227 24.2308L8.62147 25.2399C8.62436 25.2782 8.61407 25.3164 8.5921 25.3489C8.57014 25.3815 8.53763 25.4066 8.49931 25.4207C8.47669 25.43 8.45228 25.435 8.42756 25.4352ZM8.05913 24.5455L8.18324 24.6883L8.16772 24.5075L8.05913 24.5455Z" fill="#093F68"/>
</svg>
